<?xml version="1.0" encoding="UTF-8" standalone="no"?>
<!-- Created with Inkscape (http://www.inkscape.org/) -->

<svg
   xmlns:dc="http://purl.org/dc/elements/1.1/"
   xmlns:cc="http://creativecommons.org/ns#"
   xmlns:rdf="http://www.w3.org/1999/02/22-rdf-syntax-ns#"
   xmlns:svg="http://www.w3.org/2000/svg"
   xmlns="http://www.w3.org/2000/svg"
   xmlns:sodipodi="http://sodipodi.sourceforge.net/DTD/sodipodi-0.dtd"
   xmlns:inkscape="http://www.inkscape.org/namespaces/inkscape"
   width="174.97777mm"
   height="148.78461mm"
   viewBox="0 0 174.97777 148.7846"
   version="1.1"
   id="svg81"
   inkscape:version="0.92.3 (2405546, 2018-03-11)"
   sodipodi:docname="logo_white.svg">
  <defs
     id="defs75">
    <filter
       style="color-interpolation-filters:sRGB;"
       inkscape:label="Invert"
       id="filter89">
      <feColorMatrix
         type="hueRotate"
         values="180"
         result="color1"
         id="feColorMatrix85" />
      <feColorMatrix
         values="-1 0 0 0 1 0 -1 0 0 1 0 0 -1 0 1 -0.21 -0.72 -0.07 2 0 "
         result="color2"
         id="feColorMatrix87" />
    </filter>
  </defs>
  <sodipodi:namedview
     id="base"
     pagecolor="#ffffff"
     bordercolor="#666666"
     borderopacity="1.0"
     inkscape:pageopacity="0.0"
     inkscape:pageshadow="2"
     inkscape:zoom="0.98994949"
     inkscape:cx="223.87411"
     inkscape:cy="281.23279"
     inkscape:document-units="mm"
     inkscape:current-layer="layer1"
     showgrid="false"
     inkscape:window-width="1920"
     inkscape:window-height="1007"
     inkscape:window-x="0"
     inkscape:window-y="0"
     inkscape:window-maximized="1"
     showborder="false"
     fit-margin-top="0"
     fit-margin-left="0"
     fit-margin-right="0"
     fit-margin-bottom="0" />
  <metadata
     id="metadata78">
    <rdf:RDF>
      <cc:Work
         rdf:about="">
        <dc:format>image/svg+xml</dc:format>
        <dc:type
           rdf:resource="http://purl.org/dc/dcmitype/StillImage" />
        <dc:title></dc:title>
      </cc:Work>
    </rdf:RDF>
  </metadata>
  <g
     inkscape:label="Layer 1"
     inkscape:groupmode="layer"
     id="layer1"
     transform="translate(0,-148.2154)">
    <path
       style="fill:#000000;stroke-width:0.35277778;filter:url(#filter89)"
       d="m 66.188491,296.34158 c -0.563175,-0.6223 -0.372689,-1.62225 3.473065,-18.23179 l 4.068918,-17.57338 -2.984366,-11.66612 C 69.104707,242.45392 67.06725,235.14042 66.21842,232.61805 l -1.543321,-4.58611 -4.027135,-0.21817 c -2.214925,-0.11999 -9.444478,-0.23905 -16.065675,-0.26458 -6.621198,-0.0255 -12.522643,-0.14323 -13.114323,-0.26157 -0.925665,-0.18513 -2.684081,-2.35114 -12.601317,-15.52222 L 7.341115,196.45833 H 4.035748 c -2.906868,0 -3.349396,-0.0823 -3.670558,-0.68236 C 0.150194,195.37425 0,192.3356 0,188.38764 c 0,-6.52984 0.02059,-6.72039 0.784051,-7.25514 0.643817,-0.45094 2.000697,-0.54917 7.586344,-0.54917 h 6.802295 l 10.118021,4.05027 c 5.564911,2.22764 10.195817,3.97246 10.290898,3.87738 0.09508,-0.0951 0.945483,-4.97364 1.889781,-10.84123 0.944298,-5.8676 1.908601,-10.85803 2.142895,-11.08985 0.943265,-0.9333 35.589932,-18.51805 36.180986,-18.36349 0.343295,0.0898 6.52889,4.32632 13.74575,9.41455 12.882419,9.08271 13.128479,9.27873 13.500169,10.75484 l 0.37859,1.50352 12.76024,0.45576 c 7.01814,0.25068 14.22709,0.55339 16.0199,0.67271 l 3.25965,0.21693 12.06293,10.40695 12.06294,10.40694 7.69617,9.6449 c 4.23289,5.3047 7.69616,9.83842 7.69616,10.07494 0,1.39257 -0.81763,1.65772 -8.4792,2.74972 -4.1647,0.59359 -7.62417,1.12442 -7.6877,1.17963 -0.0635,0.0552 -0.31073,3.24984 -0.54932,7.0992 -0.37444,6.04105 -0.32667,10.71619 0.34905,34.16272 0.43056,14.94014 0.88143,29.80637 1.00193,33.03608 0.19071,5.11165 0.14578,5.94549 -0.34692,6.43819 C 158.76603,296.93356 157.13077,297 145.33367,297 h -13.36594 l -4.15972,-4.67431 c -2.28786,-2.57087 -6.68197,-7.56548 -9.7647,-11.09914 l -5.60498,-6.42484 -3.45897,3.24984 c -1.90244,1.78741 -7.10655,6.78202 -11.564689,11.09914 L 89.308951,297 H 78.04665 c -10.545487,0 -11.300227,-0.0419 -11.858159,-0.65842 z m 53.050399,-33.05594 c 17.17145,-16.59819 32.13039,-31.08232 33.24208,-32.18695 l 2.02125,-2.00841 1.08371,-17.43633 1.08371,-17.43633 -0.81191,-0.77567 c -0.44654,-0.42662 -5.62336,-4.92308 -11.50404,-9.99214 l -10.69214,-9.21648 -2.53702,-0.01 c -1.39537,-0.005 -7.93346,-0.23124 -14.5291,-0.50215 -6.59563,-0.27092 -12.04411,-0.44052 -12.10773,-0.37691 -0.0636,0.0636 0.61,2.92338 1.49692,6.35502 0.88693,3.43164 1.6126,6.30764 1.6126,6.39111 0,0.0835 5.04031,0.0505 11.20069,-0.0732 l 11.2007,-0.22496 6.15052,8.2397 c 3.38278,4.53184 6.21239,8.56337 6.28801,8.95896 0.10526,0.55065 -4.66566,20.05503 -9.11492,37.26336 -0.18296,0.70765 -0.60346,1.39056 -0.93444,1.51756 -0.33098,0.12701 -13.99198,-0.34915 -30.35778,-1.05813 -16.365799,-0.70898 -29.833274,-1.21179 -29.927716,-1.11734 -0.09444,0.0944 1.022259,4.82492 2.481559,10.51218 l 2.653273,10.34047 -3.708184,16.07042 c -2.039504,8.83873 -3.775996,16.26885 -3.858877,16.51139 -0.118054,0.34546 1.852601,0.4401 9.09865,0.43695 l 9.249346,-0.004 z m 36.99525,26.57061 c -0.0255,-1.98879 -0.14459,-5.41246 -0.26458,-7.60817 l -0.21818,-3.99219 -8.29027,6.93494 c -4.55966,3.81423 -8.60337,7.2379 -8.98604,7.60817 -0.68521,0.66301 -0.55552,0.67322 8.55487,0.67322 h 9.25061 z m -11.85424,-6.57254 11.37148,-9.48296 -0.57619,-19.63884 c -0.31691,-10.80136 -0.65008,-19.71272 -0.74039,-19.80303 -0.22739,-0.2274 -39.25286,37.54145 -39.25286,37.98892 0,0.33001 17.41627,20.41886 17.70237,20.41886 0.0683,0 5.24127,-4.26733 11.49559,-9.48295 z m -9.92257,-61.42193 c 2.29102,-9.0204 4.25456,-16.80623 4.36342,-17.30184 0.16556,-0.75379 -0.68362,-2.07242 -5.19406,-8.06543 l -5.39197,-7.16432 -10.52559,0.0506 -10.52559,0.0506 -19.659919,18.57274 -19.659919,18.57274 1.394809,4.43173 c 0.767147,2.43744 1.513657,4.56462 1.658909,4.72706 0.301181,0.33682 50.54445,2.65436 55.87641,2.57738 l 3.49799,-0.0505 z M 81.743701,208.75241 c 9.0777,-8.56646 17.89334,-16.92021 19.590299,-18.5639 l 3.08539,-2.98854 -2.35405,-9.09871 -2.354039,-9.09871 -12.07514,-8.49711 c -6.64134,-4.67341 -12.196807,-8.4971 -12.345492,-8.4971 -0.20579,0 -32.410829,16.42108 -32.880564,16.76553 -0.08543,0.0627 -8.896219,54.54908 -8.896219,55.01476 0,0.19503 7.185635,0.3482 21.595094,0.46033 l 10.129815,0.0788 z m -48.918097,-2.25528 2.310329,-14.25352 -9.641964,-3.8625 -9.641963,-3.8625 -2.637203,5.26562 -2.637202,5.26562 9.792448,13.00182 c 5.385847,7.151 9.871824,12.93369 9.968838,12.85041 0.09701,-0.0833 1.216036,-6.56551 2.486717,-14.40495 z m 136.710216,3.98741 c 0.11528,-0.11528 -1.9679,-2.92689 -4.62928,-6.24803 -2.66139,-3.32113 -4.90312,-5.97419 -4.98164,-5.89567 -0.0785,0.0785 -0.33629,3.22557 -0.57282,6.99346 l -0.43006,6.85071 5.20211,-0.74544 c 2.86116,-0.40999 5.29642,-0.83975 5.41169,-0.95503 z M 9.796117,188.87002 c 1.209079,-2.42732 2.198326,-4.49107 2.198326,-4.58611 0,-0.095 -1.905,-0.1728 -4.233333,-0.1728 H 3.527778 v 4.58611 4.58611 h 2.035006 2.035007 z"
       id="path277"
       inkscape:connector-curvature="0" />
  </g>
</svg>
