<?xml version="1.0" encoding="UTF-8" standalone="no"?>
<!-- Created with Inkscape (http://www.inkscape.org/) -->

<svg
   xmlns:dc="http://purl.org/dc/elements/1.1/"
   xmlns:cc="http://creativecommons.org/ns#"
   xmlns:rdf="http://www.w3.org/1999/02/22-rdf-syntax-ns#"
   xmlns:svg="http://www.w3.org/2000/svg"
   xmlns="http://www.w3.org/2000/svg"
   xmlns:sodipodi="http://sodipodi.sourceforge.net/DTD/sodipodi-0.dtd"
   xmlns:inkscape="http://www.inkscape.org/namespaces/inkscape"
   width="166.0126mm"
   height="141.4639mm"
   viewBox="0 0 166.0126 141.4639"
   version="1.1"
   id="svg304"
   inkscape:version="0.92.3 (2405546, 2018-03-11)"
   sodipodi:docname="logo_fill.svg">
  <defs
     id="defs298" />
  <sodipodi:namedview
     id="base"
     pagecolor="#ffffff"
     bordercolor="#666666"
     borderopacity="1.0"
     inkscape:pageopacity="0.0"
     inkscape:pageshadow="2"
     inkscape:zoom="0.7"
     inkscape:cx="258.95962"
     inkscape:cy="373.01834"
     inkscape:document-units="mm"
     inkscape:current-layer="layer1"
     showgrid="false"
     fit-margin-top="0"
     fit-margin-left="0"
     fit-margin-right="0"
     fit-margin-bottom="0"
     inkscape:window-width="1920"
     inkscape:window-height="1007"
     inkscape:window-x="0"
     inkscape:window-y="0"
     inkscape:window-maximized="1" />
  <metadata
     id="metadata301">
    <rdf:RDF>
      <cc:Work
         rdf:about="">
        <dc:format>image/svg+xml</dc:format>
        <dc:type
           rdf:resource="http://purl.org/dc/dcmitype/StillImage" />
        <dc:title></dc:title>
      </cc:Work>
    </rdf:RDF>
  </metadata>
  <g
     inkscape:label="Layer 1"
     inkscape:groupmode="layer"
     id="layer1"
     transform="translate(-23.116862,-61.996589)">
    <path
       style="fill:#000000;stroke-width:0.35277778"
       d="m 89.25914,203.0195 c 0.08288,-0.24253 1.819373,-7.67266 3.858877,-16.51139 l 3.708184,-16.07041 -2.653273,-10.34047 c -1.4593,-5.68727 -2.576001,-10.41775 -2.481559,-10.51219 0.09444,-0.0944 13.561911,0.40837 29.927711,1.11735 16.3658,0.70898 30.0268,1.18514 30.35778,1.05813 0.33098,-0.12701 0.75148,-0.80992 0.93444,-1.51757 4.44926,-17.20833 9.22019,-36.7127 9.11492,-37.26336 -0.0756,-0.39559 -2.90523,-4.42712 -6.28801,-8.95895 l -6.15052,-8.239709 -11.20069,0.22497 c -6.16039,0.12373 -11.2007,0.15667 -11.2007,0.0732 0,-0.0835 -0.72567,-2.95948 -1.6126,-6.39112 -0.88692,-3.43163 -1.56054,-6.29139 -1.49692,-6.35501 0.0636,-0.0636 5.5121,0.10599 12.10774,0.3769 6.59563,0.27092 13.13372,0.49688 14.52909,0.50215 l 2.53702,0.01 10.69214,9.21647 c 5.88068,5.06906 11.0575,9.565529 11.50404,9.992149 l 0.81191,0.77566 -1.08371,17.43633 -1.08371,17.43633 -2.02125,2.00842 c -1.11169,1.10462 -16.07062,15.58875 -33.24208,32.18695 l -31.22083,30.17853 -9.24935,0.004 c -7.246049,0.003 -9.216704,-0.0915 -9.09865,-0.43695 z m 68.80502,-0.23224 c 0.38266,-0.37028 4.42638,-3.79395 8.98603,-7.60817 l 8.29028,-6.93495 0.21817,3.9922 c 0.11999,2.19571 0.23905,5.61938 0.26458,7.60816 l 0.0464,3.61598 h -9.25061 c -9.11039,0 -9.24008,-0.0102 -8.55486,-0.67322 z m -14.504,-10.06109 c -4.83403,-5.51582 -8.78914,-10.19136 -8.78914,-10.39011 0,-0.44747 39.02547,-38.21632 39.25286,-37.98893 0.0903,0.0903 0.42348,9.00168 0.74039,19.80304 l 0.5762,19.63883 -11.37149,9.48296 c -6.25432,5.21563 -11.42733,9.48296 -11.49559,9.48296 -0.0683,0 -4.07921,-4.51294 -8.91323,-10.02875 z m -26.7324,-45.54068 c -14.33144,-0.64145 -26.175998,-1.29917 -26.321255,-1.46161 -0.145252,-0.16244 -0.891762,-2.28962 -1.658909,-4.72707 l -1.394809,-4.43172 19.659913,-18.57275 19.65992,-18.572739 10.52559,-0.0506 10.52559,-0.0506 5.39198,7.164319 c 4.51043,5.99302 5.35961,7.31165 5.19405,8.06543 -0.10885,0.49562 -2.07239,8.28144 -4.36342,17.30184 l -4.16551,16.40072 -3.49799,0.0505 c -1.9239,0.0278 -15.22372,-0.47432 -29.55515,-1.11576 z M 58.83561,134.05208 c -3.152951,-0.0585 -5.732639,-0.1823 -5.732639,-0.2752 0,-0.46568 8.810787,-54.952109 8.896219,-55.014759 0.469735,-0.34444 32.674774,-16.765532 32.880564,-16.765532 0.148685,0 5.704146,3.823698 12.345486,8.497107 l 12.07514,8.497105 2.35405,9.09872 2.35404,9.09871 -3.08539,2.988529 c -1.69696,1.64369 -10.5126,9.99745 -19.59029,18.5639 l -16.50491,15.57537 -10.129815,-0.0788 c -5.571398,-0.0433 -12.709504,-0.12666 -15.862455,-0.18513 z m -18.876476,-16.01216 -9.792448,-13.00182 2.637202,-5.265619 2.637203,-5.26561 9.641963,3.86249 9.641964,3.862499 -2.310329,14.25353 c -1.270681,7.83944 -2.389704,14.32166 -2.486717,14.40494 -0.09701,0.0833 -4.582991,-5.6994 -9.968838,-12.85041 z m 138.982026,-2.71736 c 0.23653,-3.76789 0.4943,-6.91495 0.57282,-6.99347 0.0785,-0.0785 2.32025,2.57454 4.98164,5.89568 2.66138,3.32114 4.74456,6.13275 4.62928,6.24803 -0.11527,0.11527 -2.55053,0.54503 -5.41169,0.95503 l -5.20211,0.74544 z M 23.116862,98.685481 v -4.58611 h 4.233333 c 2.328333,0 4.233333,0.0778 4.233333,0.17279 0,0.0951 -0.989247,2.1588 -2.198326,4.58611 l -2.198326,4.413319 h -2.035007 -2.035007 z"
       id="path435"
       inkscape:connector-curvature="0" />
  </g>
</svg>
